<svg width="151" height="94" viewBox="0 0 151 94" fill="none" xmlns="http://www.w3.org/2000/svg">
<g style="mix-blend-mode:color-dodge">
<path d="M0.454545 94L15.9091 0.909088H72.0909L70.4545 10.9091H25.5455L20.2727 42.3636H62.2727L60.6364 52.3636H18.6364L13.3636 84H59L57.3636 94H0.454545ZM76.9545 94L92.4091 0.909088H124.955C131.439 0.909088 136.606 2.0303 140.455 4.27273C144.303 6.48485 146.939 9.46969 148.364 13.2273C149.788 16.9545 150.106 21.0909 149.318 25.6364C148.652 29.6364 147.394 32.9394 145.545 35.5455C143.727 38.1515 141.545 40.2121 139 41.7273C136.485 43.2424 133.864 44.3636 131.136 45.0909L130.955 46C133.742 46.1818 136.424 47.1818 139 49C141.576 50.8182 143.561 53.4242 144.955 56.8182C146.348 60.2121 146.652 64.3636 145.864 69.2727C145.076 73.9394 143.303 78.1364 140.545 81.8636C137.788 85.5909 133.939 88.5455 129 90.7273C124.061 92.9091 117.924 94 110.591 94H76.9545ZM89.8636 84H112.227C119.591 84 125.061 82.5758 128.636 79.7273C132.242 76.8485 134.409 73.3636 135.136 69.2727C135.621 66.1212 135.273 63.2121 134.091 60.5455C132.939 57.8485 131.015 55.697 128.318 54.0909C125.652 52.4545 122.288 51.6364 118.227 51.6364H95.3182L89.8636 84ZM96.9545 41.8182H117.864C121.258 41.8182 124.439 41.1515 127.409 39.8182C130.379 38.4848 132.864 36.6061 134.864 34.1818C136.864 31.7576 138.106 28.9091 138.591 25.6364C139.318 21.5455 138.5 18.0758 136.136 15.2273C133.773 12.3485 129.5 10.9091 123.318 10.9091H102.045L96.9545 41.8182Z" fill="url(#paint0_linear_88_2)"/>
</g>
<defs>
<linearGradient id="paint0_linear_88_2" x1="80" y1="-30" x2="80" y2="125" gradientUnits="userSpaceOnUse">
<stop stop-color="#02EFFA" stop-opacity="0.998047"/>
<stop offset="1" stop-color="white" stop-opacity="0.96875"/>
</linearGradient>
</defs>
</svg>
